<svg width="96" height="73" viewBox="0 0 96 73" fill="none" xmlns="http://www.w3.org/2000/svg">
<path d="M51.0874 72.2518V51.6084H64.7106L47.6815 30.965L30.6524 51.6084H44.2757V72.2518H27.2466V72.0798C26.6719 72.112 26.1291 72.2518 25.5437 72.2518C18.7691 72.2518 12.2719 69.5331 7.48157 64.6939C2.6912 59.8547 0 53.2913 0 46.4476C0.0088304 40.1301 2.32103 34.0373 6.49496 29.3329C10.6689 24.6285 16.412 21.6422 22.6274 20.9444C23.7451 15.0569 26.857 9.74614 31.4289 5.9242C36.0008 2.10226 41.7472 0.00762532 47.6815 0C53.6176 0.00512855 59.3667 2.09863 63.9407 5.92078C68.5148 9.74293 71.6283 15.0551 72.7463 20.9444C78.9578 21.6472 84.6958 24.6356 88.8654 29.3395C93.035 34.0434 95.3442 40.1334 95.3524 46.4476C95.3524 53.2913 92.6612 59.8547 87.8708 64.6939C83.0805 69.5331 76.5834 72.2518 69.8087 72.2518C69.2447 72.2518 68.6912 72.112 68.1058 72.0798V72.2518H51.0874Z" fill="#80C3D8"/>
</svg>
